# xmcd
#
# Track frame offsets: 
#        150
#        16344
#        57338
#        84531
#        103157
#        116724
#        142099
#        168726
#        178992
#
# Disc length: 2710 seconds
#
# Revision: 1
# Processed by: cddbd v1.5.2PL0 Copyright (c) Steve Scherf et al.
# Submitted via: ExactAudioCopy v1.1
#
DISCID=830a9409
DTITLE=The Butterfield Blues Band - The Resurrection Of Pigboy Crabsha
DTITLE=w
DYEAR=1967
DGENRE=Blues
TTITLE0=One More Heartache (stereo)
TTITLE1=Driftin' And Driftin' (stereo)
TTITLE2=Pity The Fool (stereo)
TTITLE3=Born Under A Bad Sign (stereo)
TTITLE4=Run Out Of Time (stereo)
TTITLE5=Double Trouble (stereo)
TTITLE6=Drivin' Wheel (stereo)
TTITLE7=Droppin' Out (stereo)
TTITLE8=Tollin' Bells (stereo)
EXTD=
EXTT0=
EXTT1=
EXTT2=
EXTT3=
EXTT4=
EXTT5=
EXTT6=
EXTT7=
EXTT8=
PLAYORDER=
